# xmcd CD database file
#
# Track frame offsets:
#	26527
#	40415
#	54052
#	67107
#	80037
#	93792
#	107910
#	122080
#	134895
#	146400
#	159882
#	173562
#	187602
#	202140
#
# Disc length: 2882 seconds
#
# Revision: 1
# Processed by: cddbd v1.5.1PL0 Copyright (c) Steve Scherf et al.
# Submitted via: CDex 1.51
#
DISCID=c809e10e
DTITLE=Charley Patton - ''Screamin' and Hollerin' the Blues'' - by The Masked Marvel - disc 3
DYEAR=2001
DGENRE=Blues
TTITLE0=Jim Lee  (part 1)
TTITLE1=Jim Lee  (part 2)
TTITLE2=Mean Black Cat Blues
TTITLE3=Jesus is a Dying Bed Maker
TTITLE4=Elder Greene Blues  (take 1)
TTITLE5=When Your Way Gets Dark
TTITLE6=Some These Days I'll Be Gone  (take 2)
TTITLE7=Heart Like Railroad Steel
TTITLE8=Circle 'Round The Moon
TTITLE9=You're Gonna Need Somebody When You Die
TTITLE10=Be True Be True Blues  - Henry Sims
TTITLE11=Farrell Blues - Henry Sims
TTITLE12=Tell Me Man Blues - Henry Sims
TTITLE13=Come Back, Corrina - Henry Sims
EXTD=YEAR: 2001
EXTT0=
EXTT1=
EXTT2=
EXTT3=
EXTT4=
EXTT5=
EXTT6=
EXTT7=
EXTT8=
EXTT9=
EXTT10=
EXTT11=
EXTT12=
EXTT13=
PLAYORDER=
